<svg width="442" height="478" viewBox="0 0 442 478" fill="none" xmlns="http://www.w3.org/2000/svg">
<path d="M0.267578 15.2229C0.267578 6.81553 7.08312 0 15.4905 0H426.51C434.917 0 441.733 6.81554 441.733 15.2229V462.777C441.733 471.184 434.917 478 426.51 478H15.4905C7.08312 478 0.267578 471.184 0.267578 462.777V15.2229Z" fill="white" fill-opacity="0.05"/>
<rect x="112.917" y="92.0986" width="216.166" height="95.9045" fill="white" fill-opacity="0.5"/>
<rect x="148.691" y="198.659" width="144.618" height="22.8344" fill="white" fill-opacity="0.5"/>
<rect x="52.7866" y="299.13" width="334.143" height="10.6561" fill="white" fill-opacity="0.5"/>
<rect x="52.7866" y="326.532" width="334.143" height="10.6561" fill="white" fill-opacity="0.5"/>
<rect x="55.0698" y="353.933" width="334.143" height="10.6561" fill="white" fill-opacity="0.5"/>
<rect x="52.7866" y="381.334" width="334.143" height="10.6561" fill="white" fill-opacity="0.5"/>
<rect x="179.898" y="232.15" width="82.2038" height="22.8344" fill="white" fill-opacity="0.5"/>
<rect x="29.9521" y="22.8345" width="20.551" height="17.5064" fill="white" fill-opacity="0.5"/>
<rect x="368.663" y="24.3564" width="44.1465" height="13.7006" fill="white" fill-opacity="0.5"/>
<rect x="150.975" y="28.9233" width="31.9682" height="5.32803" fill="white" fill-opacity="0.5"/>
<rect x="193.599" y="28.9233" width="31.9682" height="5.32803" fill="white" fill-opacity="0.5"/>
<rect x="236.223" y="28.9233" width="31.9682" height="5.32803" fill="white" fill-opacity="0.5"/>
</svg>
