<svg width="106" height="65" viewBox="0 0 106 65" fill="none" xmlns="http://www.w3.org/2000/svg">
<rect x="20" y="5" width="86" height="60" rx="6" fill="#EBEDF1" fill-opacity="0.5"/>
<rect x="20.5" y="5.5" width="85" height="59" rx="5.5" stroke="#898C91" stroke-opacity="0.5" stroke-dasharray="2 2"/>
<rect x="31" y="15" width="64" height="16" rx="4" fill="#898C91" fill-opacity="0.15"/>
<rect x="53" y="42" width="42" height="3" rx="1.5" fill="#898C91"/>
<rect x="53" y="49" width="30" height="3" rx="1.5" fill="#898C91" fill-opacity="0.75"/>
<rect x="31" y="39" width="16" height="16" rx="4" fill="#898C91" fill-opacity="0.3"/>
<rect x="8.77087" width="29.2362" height="29.2362" rx="3.89816" fill="#EBEDF1"/>
<mask id="mask0_118_304" style="mask-type:alpha" maskUnits="userSpaceOnUse" x="8" y="0" width="31" height="30">
<rect x="8.77087" width="29.2362" height="29.2362" rx="3.89816" fill="#EBEDF1" fill-opacity="0.5"/>
</mask>
<g mask="url(#mask0_118_304)">
</g>
<g clip-path="url(#clip0_118_304)">
<path d="M21.9271 21.9271C21.3888 21.9271 20.9525 21.4908 20.9525 20.9526V16.9709C20.9525 16.7655 21.0174 16.5654 21.1379 16.399L25.4304 10.4754C25.8448 9.90356 26.7108 9.94854 27.0637 10.5602L32.7783 20.4656C33.1532 21.1153 32.6843 21.9271 31.9342 21.9271H21.9271ZM18.6316 14.1189C19.0461 13.5761 19.8759 13.617 20.2351 14.1979L24.0939 20.4402C24.4953 21.0894 24.0283 21.9271 23.265 21.9271H14.6393C13.8324 21.9271 13.375 21.0025 13.8648 20.3611L18.6316 14.1189ZM18.1101 11.3696C17.5717 11.3696 17.0553 11.1557 16.6745 10.775C16.2938 10.3942 16.0799 9.87781 16.0799 9.33934C16.0799 8.80088 16.2938 8.28446 16.6745 7.90371C17.0553 7.52296 17.5717 7.30905 18.1101 7.30905C18.6486 7.30905 19.165 7.52296 19.5458 7.90371C19.9265 8.28446 20.1404 8.80088 20.1404 9.33934C20.1404 9.87781 19.9265 10.3942 19.5458 10.775C19.165 11.1557 18.6486 11.3696 18.1101 11.3696Z" fill="#898C91"/>
</g>
<path d="M3.55198 37.5102L2.34221 36.5278C2.12446 36.3465 2.08142 36.0102 2.26253 35.7691L4.86773 32.2892L1.90162 31.4944C1.69974 31.4403 1.55626 31.2615 1.53128 31.0441C1.5041 30.8349 1.60437 30.616 1.79139 30.5082L11.9894 24.2528C12.1111 24.1713 12.2485 24.1555 12.3805 24.1908C12.4426 24.2075 12.5081 24.2426 12.5559 24.2817C12.7203 24.4135 12.7941 24.6352 12.737 24.8481L9.43675 37.1648C9.3797 37.3777 9.205 37.5328 8.9967 37.5648C8.93576 37.5748 8.86149 37.5724 8.79938 37.5558C8.66738 37.5204 8.5585 37.4298 8.49166 37.3065L6.75371 34.1024L4.27882 37.4065C4.0999 37.6395 3.7775 37.6935 3.55198 37.5102Z" fill="#898C91"/>
<defs>
<clipPath id="clip0_118_304">
<rect width="19.4908" height="19.4908" fill="white" transform="translate(13.6436 4.87271)"/>
</clipPath>
</defs>
</svg>
